# xmcd
#
# Track frame offsets:
#	150
#	18073
#	33371
#	53880
#	70639
#	87432
#	106823
#	124241
#	141796
#	158602
#	174746
#	199609
#	220304
#	239795
#	254664
#	271847
#	290656
#	307133
#	325750
#	343787
#
# Disc length: 4784 seconds
#
# Revision: 0
# Processed by: cddbd v1.5.2PL0 Copyright (c) Steve Scherf et al.
# Submitted via: EasyCDDAExtractor 12.0.0.1
#
DISCID=2d12ae14
DTITLE=Стас Михайлов - Нежданная любовь
DYEAR=2008
DGENRE=Chanson
TTITLE0=Нежданная любовь
TTITLE1=На крыльях любви
TTITLE2=Мы разные
TTITLE3=За женщин всех
TTITLE4=Ты...
TTITLE5=Гори звезда моя
TTITLE6=Ушла
TTITLE7=Летит по небу...
TTITLE8=Танго
TTITLE9=Ветер
TTITLE10=Небеса
TTITLE11=Засыпает лес
TTITLE12=Быть хочу счастливым
TTITLE13=Звездой на небо
TTITLE14=На волю
TTITLE15=По тонкому льду
TTITLE16=За воротами времени
TTITLE17=Человек
TTITLE18=Жди
TTITLE19=Позывные на любрвь
EXTD=
EXTT0=
EXTT1=
EXTT2=
EXTT3=
EXTT4=
EXTT5=
EXTT6=
EXTT7=
EXTT8=
EXTT9=
EXTT10=
EXTT11=
EXTT12=
EXTT13=
EXTT14=
EXTT15=
EXTT16=
EXTT17=
EXTT18=
EXTT19=
PLAYORDER=
